<?xml version="1.0" encoding="utf-8"?>
<!-- Generator: Adobe Illustrator 15.1.0, SVG Export Plug-In . SVG Version: 6.00 Build 0)  -->
<!DOCTYPE svg PUBLIC "-//W3C//DTD SVG 1.1//EN" "http://www.w3.org/Graphics/SVG/1.1/DTD/svg11.dtd">
<svg version="1.1" id="Layer_1" xmlns="http://www.w3.org/2000/svg" xmlns:xlink="http://www.w3.org/1999/xlink" x="0px" y="0px"
	 width="216px" height="73px" viewBox="0 0 216 73" enable-background="new 0 0 216 73" xml:space="preserve">
<path fill="#EF3B39" d="M79.25,3.75c0,0-9.75,1.75-11.75,14s-6.5,43-6.5,43S62.5,70,70.125,70s26.625,0,26.625,0l2.75-19
	l-16.25-0.25c0,0-3.5-1-3-4s3.5-19.25,3.5-19.25s0-3.25,4.75-3.25s16,0.25,16,0.25L108,3.75H79.25z"/>
<path fill="#EF3B39" d="M28,5L4,70h17.75l3.5-9.25H38V70h17.75V5H28z M38,41.5h-6.375L38,27.5V41.5z"/>
<polygon fill="#EF3B39" points="126.75,44.75 126.75,70 137.25,70 146.25,44.75 141.25,70 157.25,70 170,3.75 147.5,3.75 
	137.25,28.5 137.25,3.75 116.25,3.75 103.25,70 121,70 "/>
<polygon fill="#EF3B39" points="204.25,49.5 186.5,49.5 188.25,42.75 205.75,42.75 208.5,28.5 190.5,28.5 192,22.75 210,22.75 
	213.25,3.75 177.5,3.75 165.5,70 201,70 "/>
</svg>
