<?xml version="1.0" encoding="UTF-8" standalone="no"?>
<svg width="68px" height="53px" viewBox="0 0 68 53" version="1.1" xmlns="http://www.w3.org/2000/svg" xmlns:xlink="http://www.w3.org/1999/xlink">
    <!-- Generator: Sketch 46.2 (44496) - http://www.bohemiancoding.com/sketch -->
    <title>Icon2</title>
    <desc>Created with Sketch.</desc>
    <defs></defs>
    <g id="Enterprise" stroke="none" stroke-width="1" fill="none" fill-rule="evenodd" stroke-linejoin="round">
        <g id="Icon2" stroke="#1979B9">
            <path d="M45.0869565,23 L51,27.1016949 L51,42.7627119 C51,43.9976949 50.0066087,45 48.7826087,45 L19.2173913,45 C17.9933913,45 17,43.9976949 17,42.7627119 L17,27.1016949 L22.9130435,23" id="Stroke-4736" stroke-linecap="round"></path>
            <polyline id="Stroke-4737" stroke-linecap="round" points="21 40 28.3529412 34 38.6470588 34 46 40"></polyline>
            <path d="M51,27 L42,33" id="Stroke-4738" stroke-linecap="round"></path>
            <path d="M17,27 L26,33" id="Stroke-4739" stroke-linecap="round"></path>
            <polyline id="Stroke-4740" stroke-linecap="round" points="45 30 45 10 23 10 23 30"></polyline>
            <path d="M26.898475,15.375 L32.875225,15.375" id="Stroke-3319" stroke-linecap="round"></path>
            <path d="M29.875,13.875 L29.875,15.375" id="Stroke-3320" stroke-linecap="round"></path>
            <path d="M31.75,15.375 C31.12825,17.55825 29.44525,19.27875 27.25,19.875" id="Stroke-3321" stroke-linecap="round"></path>
            <path d="M28,15.375 C28.62175,17.55825 30.30475,19.27875 32.5,19.875" id="Stroke-3322" stroke-linecap="round"></path>
            <polyline id="Stroke-3323" stroke-linecap="round" points="35.875 28.125 38.125 22.125 40.375 28.125"></polyline>
            <path d="M36.4375,26.625 L39.8215,26.625" id="Stroke-3324"></path>
            <polygon id="Stroke-3325" stroke-linecap="round" points="25.375 21.375 34.375 21.375 34.375 12.375 25.375 12.375"></polygon>
            <polyline id="Stroke-3326" stroke-linecap="round" points="36.25 20.625 42.625 20.625 42.625 29.625 33.625 29.625 33.625 23.25"></polyline>
            <polyline id="Stroke-3327" stroke-linecap="round" points="29.5 29.25 31 27.75 29.5 26.25"></polyline>
            <path d="M26.5,24 C26.5,26.0715 28.1785,27.75 30.25,27.75 L31,27.75" id="Stroke-3328" stroke-linecap="round"></path>
            <polyline id="Stroke-3329" stroke-linecap="round" points="38.5 12.75 37 14.25 38.5 15.75"></polyline>
            <path d="M41.5,18 C41.5,15.9285 39.8215,14.25 37.75,14.25 L37,14.25" id="Stroke-3330" stroke-linecap="round"></path>
        </g>
    </g>
</svg>