<?xml version="1.0" encoding="UTF-8" standalone="no"?>
<svg width="68px" height="53px" viewBox="0 0 68 53" version="1.1" xmlns="http://www.w3.org/2000/svg" xmlns:xlink="http://www.w3.org/1999/xlink">
    <!-- Generator: Sketch 46.2 (44496) - http://www.bohemiancoding.com/sketch -->
    <title>Icon1</title>
    <desc>Created with Sketch.</desc>
    <defs></defs>
    <g id="Enterprise" stroke="none" stroke-width="1" fill="none" fill-rule="evenodd">
        <g id="Icon1" stroke="#1979B9">
            <path d="M30.9285714,36 L18.3571429,36 C17.056,36 16,34.944 16,33.6428571 L16,16.3571429 C16,15.056 17.056,14 18.3571429,14 L46.6428571,14 C47.944,14 49,15.056 49,16.3571429 L49,25" id="Stroke-5794" stroke-linecap="round" stroke-linejoin="round"></path>
            <path d="M33.898475,27.375 L39.875225,27.375" id="Stroke-3319" stroke-linecap="round" stroke-linejoin="round"></path>
            <path d="M36.875,25.875 L36.875,27.375" id="Stroke-3320" stroke-linecap="round" stroke-linejoin="round"></path>
            <path d="M38.75,27.375 C38.12825,29.55825 36.44525,31.27875 34.25,31.875" id="Stroke-3321" stroke-linecap="round" stroke-linejoin="round"></path>
            <path d="M35,27.375 C35.62175,29.55825 37.30475,31.27875 39.5,31.875" id="Stroke-3322" stroke-linecap="round" stroke-linejoin="round"></path>
            <polyline id="Stroke-3323" stroke-linecap="round" stroke-linejoin="round" points="42.875 40.125 45.125 34.125 47.375 40.125"></polyline>
            <path d="M43.4375,38.625 L46.8215,38.625" id="Stroke-3324" stroke-linejoin="round"></path>
            <polygon id="Stroke-3325" stroke-linecap="round" stroke-linejoin="round" points="32.375 33.375 41.375 33.375 41.375 24.375 32.375 24.375"></polygon>
            <polyline id="Stroke-3326" stroke-linecap="round" stroke-linejoin="round" points="43.25 32.625 49.625 32.625 49.625 41.625 40.625 41.625 40.625 35.25"></polyline>
            <polyline id="Stroke-3327" stroke-linecap="round" stroke-linejoin="round" points="36.5 41.25 38 39.75 36.5 38.25"></polyline>
            <path d="M33.5,36 C33.5,38.0715 35.1785,39.75 37.25,39.75 L38,39.75" id="Stroke-3328" stroke-linecap="round" stroke-linejoin="round"></path>
            <polyline id="Stroke-3329" stroke-linecap="round" stroke-linejoin="round" points="45.5 24.75 44 26.25 45.5 27.75"></polyline>
            <path d="M48.5,30 C48.5,27.9285 46.8215,26.25 44.75,26.25 L44,26.25" id="Stroke-3330" stroke-linecap="round" stroke-linejoin="round"></path>
            <path d="M17,15 L29.7969971,24.7349854" id="Line-4" stroke-linecap="round"></path>
            <path d="M39,22 L47.5,15" id="Line-5" stroke-linecap="round"></path>
        </g>
    </g>
</svg>