<?xml version="1.0" encoding="UTF-8" standalone="no"?>
<svg width="100px" height="100px" viewBox="0 0 100 100" version="1.1" xmlns="http://www.w3.org/2000/svg" xmlns:xlink="http://www.w3.org/1999/xlink">
    <!-- Generator: Sketch 46.2 (44496) - http://www.bohemiancoding.com/sketch -->
    <title>herologo-nobg</title>
    <desc>Created with Sketch.</desc>
    <defs></defs>
    <g id="app-icon" stroke="none" stroke-width="1" fill="none" fill-rule="evenodd">
        <g id="herologo-nobg" fill-rule="nonzero">
            <g id="Group" transform="translate(13.000000, 22.000000)">
                <path d="M43.0805933,14.9867205 C41.6002846,16.1256939 41.9132642,17.0591383 43.7742237,17.0591383 L72.4329998,17.0591383 C74.2939593,17.0591383 74.8184115,15.8944738 73.600329,14.4900253 L63.9487163,3.24587369 C62.6864751,1.81722163 60.5580816,1.5946987 59.0340915,2.73205107 L43.0805933,14.9867205 Z" id="Shape" fill="#89CAE8"></path>
                <path d="M55.2819912,2.05818201 C56.7279738,0.927032394 56.4222517,0 54.6044451,0 L19.6529807,0 C17.835174,0 17.529452,0.927032394 18.9754345,2.05818201 L34.4928932,14.2031569 C36.0749957,15.3351889 38.1741673,15.3351889 39.7562698,14.2031569 L55.2819912,2.05818201 Z" id="Shape" fill="#5CB7E1"></path>
                <path d="M30.4849158,17.0591383 C32.3439165,17.0591383 32.6565666,16.1267549 31.1778161,14.9890759 L15.2495604,2.73122695 C13.7271744,1.59516726 11.6010212,1.81743728 10.3401086,3.24446556 L0.656405132,14.4758373 C-0.560395304,15.8957975 -0.0364951163,17.0420304 1.82250555,17.0420304 L30.4849158,17.0591383 Z" id="Shape" fill="#43ADDE"></path>
                <path d="M35.1217554,22.4251163 C35.1217554,20.5699805 33.6432267,19.0660958 31.819369,19.0660958 L1.70986075,19.0660958 C-0.106451788,19.0660958 -0.54401799,20.1409824 0.727400785,21.4510003 L32.801829,54.4449789 C34.0815037,55.7549969 35.1217554,55.2847341 35.1217554,53.470863 L35.1217554,22.4251163 Z" id="Shape" fill="#1497D8"></path>
                <path d="M41.434452,19.0660958 C39.610664,19.0660958 38.1321916,20.5685467 38.1321916,22.4219139 L38.1321916,53.4632308 C38.1321916,55.3089308 39.1806593,55.7451871 40.4520296,54.4364181 L72.5252342,21.4738953 C73.8048601,20.1651262 73.3507993,19.0912644 71.5428117,19.0912644 L41.434452,19.0660958 Z" id="Shape" fill="#B7E0EE"></path>
            </g>
        </g>
    </g>
</svg>