<svg id="Layer_1" data-name="Layer 1" xmlns="http://www.w3.org/2000/svg" viewBox="0 0 243.79 65.54"><title>samplelogo-sugarcon2017-mobile</title><path d="M506.89,459.67h-7.3V446.78h-9.94v12.89h-7.3V430.58h7.3v10.64h9.94V430.58h7.3Z" transform="translate(-372.26 -416)"/><path d="M520.91,459.67V430.58h19.67v5.55h-12.4v5.1H539.6v5.55H528.17v7.34h12.4v5.55Z" transform="translate(-372.26 -416)"/><path d="M580.41,459.67h-8.91L563.4,449h-2.62v10.66h-7.27V430.58h11.7a25.81,25.81,0,0,1,4.22.3,9,9,0,0,1,3.32,1.26,7.63,7.63,0,0,1,2.48,2.53,7.5,7.5,0,0,1,.92,3.9,9,9,0,0,1-1.5,5.42,10.6,10.6,0,0,1-4,3.31Zm-11.76-20.18a4,4,0,0,0-.42-1.88,2.78,2.78,0,0,0-1.4-1.22,5.07,5.07,0,0,0-1.52-.37c-.56-.05-1.26-.08-2.09-.08h-2.44v7.83h2.09a15.24,15.24,0,0,0,2.59-.19,3.84,3.84,0,0,0,1.81-.79,3.41,3.41,0,0,0,1-1.31A4.94,4.94,0,0,0,568.65,439.49Z" transform="translate(-372.26 -416)"/><path d="M616,445.13q0,7.05-3.77,11.09t-10.33,4q-6.58,0-10.33-4.09t-3.75-11q0-7,3.75-11.08T601.94,430q6.56,0,10.33,4.05T616,445.13Zm-7.54,0a15.84,15.84,0,0,0-.54-4.42,9.14,9.14,0,0,0-1.44-3,5.56,5.56,0,0,0-2.12-1.71,6.26,6.26,0,0,0-4.89,0,5.87,5.87,0,0,0-2.11,1.71,8.89,8.89,0,0,0-1.46,3,18.61,18.61,0,0,0,0,8.92,9,9,0,0,0,1.45,3,5.44,5.44,0,0,0,2.13,1.73,6.1,6.1,0,0,0,2.46.52,5.92,5.92,0,0,0,2.5-.56,5.44,5.44,0,0,0,2.09-1.73,9.56,9.56,0,0,0,1.45-3A15.76,15.76,0,0,0,608.51,445.12Z" transform="translate(-372.26 -416)"/><path fill="#89cae8" d="M424.39,433.08c-1.75,1.33-1.38,2.42.82,2.42h33.88c2.2,0,2.82-1.36,1.38-3l-11.41-13.13a4.34,4.34,0,0,0-5.81-.6Z" transform="translate(-372.26 -416)"/><path fill="#5cb7e1" d="M438.72,418.42c1.75-1.33,1.38-2.42-.82-2.42H395.6c-2.2,0-2.57,1.09-.82,2.42l18.78,14.28a5.58,5.58,0,0,0,6.37,0Z" transform="translate(-372.26 -416)"/><path fill="#43adde" d="M408.3,435.5c2.2,0,2.57-1.09.82-2.42l-18.85-14.33a4.34,4.34,0,0,0-5.81.6L373,432.48c-1.44,1.66-.82,3,1.38,3Z" transform="translate(-372.26 -416)"/><path fill="#1497d8" d="M415.25,442.5a4,4,0,0,0-4-4H374.78c-2.2,0-2.73,1.28-1.19,2.84l38.85,39.29c1.55,1.56,2.81,1,2.81-1.16Z" transform="translate(-372.26 -416)"/><path fill="#b7e0ee" d="M422.25,438.5a4,4,0,0,0-4,4v37c0,2.2,1.27,2.72,2.81,1.16l38.85-39.29c1.55-1.56,1-2.84-1.19-2.84Z" transform="translate(-372.26 -416)"/></svg>